<?xml version="1.0" encoding="utf-8"?>
<!-- Generator: Adobe Illustrator 21.0.0, SVG Export Plug-In . SVG Version: 6.00 Build 0)  -->
<svg version="1.1" id="Layer_1" xmlns="http://www.w3.org/2000/svg" xmlns:xlink="http://www.w3.org/1999/xlink" x="0px" y="0px"
	 viewBox="0 0 151 150" style="enable-background:new 0 0 151 150;" xml:space="preserve">
<style type="text/css">
	.st0{fill:#5BAF5D;}
	.st1{fill:#66C468;}
	.st2{fill:#76E378;}
	.st3{fill:#4D944F;}
	.st4{fill:#9AC4F0;}
	.st5{fill:#E0E1E2;}
	.st6{fill:#958079;}
	.st7{fill:#444B52;}
	.st8{fill:#6D6E71;}
	.st9{fill:#8D8F92;}
	.st10{fill:#855E3C;}
	.st11{fill:#A37C50;}
	.st12{fill:#805E3A;}
	.st13{fill:#6C4A30;}
	.st14{fill:#FFFFFF;}
	.st15{fill:#FCD75F;}
	.st16{fill:#EB5252;}
	.st17{fill:#B09A7D;}
	.st18{fill:#325743;}
	.st19{fill:#8C6645;}
	.st20{fill:#B58A64;}
	.st21{fill:#6E5036;}
	.st22{fill:#52351C;}
	.st23{fill:#D1D3D4;}
	.st24{fill:#6B6A6E;}
	.st25{fill:#68696B;}
	.st26{fill:#757578;}
	.st27{fill:#737476;}
	.st28{fill:#F1F2F2;}
	.st29{fill:#BABCBD;}
	.st30{fill:#38B077;}
	.st31{fill:#40A7FF;}
	.st32{fill:#4081FF;}
	.st33{fill:#4B5582;}
	.st34{fill:#3ECFCF;}
	.st35{fill:#89E2E2;}
	.st36{fill:#FF84C1;}
	.st37{fill:#FFB3D1;}
	.st38{fill:#FF99C1;}
	.st39{fill:#FFC642;}
	.st40{fill:#14E398;}
	.st41{fill:#FF91F6;}
	.st42{fill:#6BFFC9;}
	.st43{fill:#FF6BF3;}
	.st44{fill:#FFD67D;}
	.st45{fill:#425B80;}
	.st46{fill:#F2AC32;}
	.st47{fill:#F268EB;}
	.st48{fill:#00A7E8;}
	.st49{fill:#C7A983;}
	.st50{fill:#AD895D;}
	.st51{fill:#5E5755;}
	.st52{fill:#F24129;}
	.st53{fill:#C73522;}
	.st54{fill:#423E3A;}
	.st55{fill:#CC2121;}
	.st56{fill:#E0E0E0;}
	.st57{fill:#A31A1A;}
	.st58{fill:#2E292A;}
	.st59{fill:#EBEBEB;}
	.st60{fill:#58595B;}
	.st61{fill:#D2D3D4;}
	.st62{fill:#AFB1B5;}
	.st63{fill:#4CE637;}
	.st64{fill:#F03E3E;}
	.st65{fill:#DADADB;}
	.st66{opacity:0.3;}
	.st67{fill:#DFE0E1;}
	.st68{fill:#2CD4F5;}
	.st69{fill:#1BCDF0;}
	.st70{fill:none;stroke:#2CD4F5;stroke-width:4;stroke-linecap:round;stroke-miterlimit:10;}
	.st71{fill:#373F61;}
	.st72{opacity:0.2;}
	.st73{fill:#FF82A0;}
	.st74{fill:#E6E6E6;}
	.st75{fill:#FF5C83;}
	.st76{fill:#D4335B;}
	.st77{fill:#A0A2A5;}
	.st78{fill:#436C8C;}
	.st79{fill:#EDEDED;}
	.st80{fill:#2BAF73;}
	.st81{fill:#50DE9D;}
	.st82{fill:#D6D6D6;}
	.st83{fill:#1B8555;}
	.st84{fill:#3B434F;}
	.st85{fill:#73DEEF;}
	.st86{fill:#DCA0FF;}
	.st87{fill:#D78DFF;}
	.st88{fill:#DC92FF;}
	.st89{fill:#73D0E4;}
	.st90{fill:#726097;}
</style>
<g>
	<g>
		<path class="st85" d="M98.96,2.04h27.3c-1.73,2.27-3.67,4.43-5.85,6.48l-19.15,18.13l-0.27-0.29c2.92-2.9,4.72-6.9,4.72-11.32
			C105.71,9.68,103.04,4.94,98.96,2.04z"/>
	</g>
	<g>
		<path class="st85" d="M100.99,26.36l0.27,0.29l-66.33,62.8c-1.1,1.02-2.52,1.5-3.93,1.44V71.6c-2.95,3.33-8.07,5.44-12.89,5.44
			c-8.9,0-16.11-7.16-16.11-16s7.21-16,16.11-16c4.82,0,9.94,2.11,12.89,5.44V2.04h49.23c-4.08,2.9-6.74,7.64-6.74,13
			c0,8.84,7.21,16,16.11,16C94.05,31.04,98.08,29.25,100.99,26.36z"/>
	</g>
	<g>
		<path class="st86" d="M148.96,71.64v48.4H99.91c3.54,2.9,5.8,7.29,5.8,12.2c0,8.73-7.12,15.8-15.91,15.8s-15.91-7.07-15.91-15.8
			c0-4.91,2.25-9.3,5.79-12.2H31V90.89c1.41,0.06,2.83-0.42,3.93-1.44l66.33-62.8l19.15-18.13c2.18-2.05,4.12-4.21,5.85-6.48h22.7
			v48.4c-2.95-3.31-7.25-5.4-12.04-5.4c-8.9,0-16.11,7.16-16.11,16s7.21,16,16.11,16C141.71,77.04,146.01,74.95,148.96,71.64z"/>
	</g>
	<g>
		<g>
			<path class="st87" d="M137.96,76.983v43.057h11v-48.4C146.227,74.707,142.328,76.704,137.96,76.983z"/>
		</g>
		<g>
			<path class="st88" d="M137.96,2.04v43.057c4.368,0.28,8.267,2.276,11,5.344V2.04H137.96z"/>
		</g>
	</g>
	<g>
		<path class="st88" d="M34.93,89.45c-1.1,1.02-2.52,1.5-3.93,1.44V120c0.024,0.001,0.073,0.016,0.137,0.04H79.68
			c-3.54,2.9-5.79,7.29-5.79,12.2c0,8.73,7.12,15.8,15.91,15.8c6.352,0,11.816-3.701,14.367-9.043l0.076-1.24L45.605,79.343
			L34.93,89.45z"/>
	</g>
	<g>
		<path class="st89" d="M2,61.04C2,73,13.975,76.488,13.975,76.488c1.322,0.348,2.703,0.552,4.136,0.552
			c4.82,0,9.94-2.11,12.89-5.44v19.29c1.41,0.06,2.83-0.42,3.93-1.44l10.79-10.216L12.273,46.139C6.264,48.462,2,54.248,2,61.04z"/>
	</g>
	<path class="st90" d="M136.92,47.04c4.023,0,7.867,1.724,10.547,4.73c0.553,0.621,1.434,0.834,2.205,0.539
		c0.775-0.295,1.288-1.039,1.288-1.869V2.04c0-1.104-0.896-2-2-2h-22.276c-0.26-0.052-0.527-0.052-0.787,0H98.96
		c-0.87,0-1.641,0.563-1.905,1.392s0.037,1.734,0.747,2.238c3.699,2.629,5.908,6.88,5.908,11.37c0,3.74-1.467,7.256-4.129,9.901
		c-2.662,2.643-6.207,4.099-9.981,4.099c-7.78,0-14.109-6.28-14.109-14c0-4.494,2.205-8.745,5.898-11.37
		c0.71-0.504,1.012-1.409,0.747-2.238S81.101,0.04,80.231,0.04H31c-1.104,0-2,0.896-2,2v44.175
		c-3.138-1.991-7.062-3.175-10.89-3.175C8.124,43.04,0,51.115,0,61.04s8.124,18,18.11,18c3.827,0,7.752-1.184,10.89-3.175v14.818
		c-0.006,0.055-0.018,0.108-0.02,0.164c-0.002,0.083,0.011,0.163,0.02,0.245v28.949c0,1.104,0.896,2,2,2h44.112
		c-2.081,2.957-3.223,6.499-3.223,10.2c0,9.814,8.034,17.8,17.91,17.8s17.91-7.985,17.91-17.8c0-3.698-1.145-7.241-3.229-10.2
		h44.479c1.104,0,2-0.896,2-2v-48.4c0-0.83-0.513-1.574-1.288-1.869c-0.772-0.296-1.653-0.082-2.205,0.539
		c-2.68,3.006-6.523,4.73-10.547,4.73c-7.78,0-14.11-6.28-14.11-14S129.14,47.04,136.92,47.04z M122.002,4.04
		c-0.943,1.045-1.934,2.056-2.967,3.028l-11.593,10.976c0.166-0.985,0.268-1.986,0.268-3.004c0-4.017-1.369-7.881-3.798-11H122.002z
		 M18.111,75.04c-7.78,0-14.11-6.28-14.11-14s6.33-14,14.11-14c4.289,0,8.867,1.916,11.393,4.766
		c0.552,0.623,1.432,0.836,2.206,0.544C32.487,52.055,33,51.311,33,50.48V4.04h42.281c-2.425,3.117-3.791,6.982-3.791,11
		c0,9.925,8.124,18,18.109,18c0.725,0,1.44-0.055,2.149-0.138L33.571,87.983c-0.176,0.164-0.368,0.304-0.57,0.424V71.6
		c0-0.831-0.514-1.575-1.291-1.87c-0.773-0.294-1.655-0.078-2.206,0.544C26.978,73.125,22.4,75.04,18.111,75.04z M118.81,61.04
		c0,9.925,8.124,18,18.11,18c3.602,0,7.092-1.077,10.04-3.037v42.037H99.91c-0.845,0-1.599,0.531-1.884,1.327
		c-0.284,0.796-0.037,1.685,0.616,2.22c3.221,2.639,5.067,6.521,5.067,10.653c0,7.609-6.24,13.8-13.91,13.8s-13.91-6.19-13.91-13.8
		c0-4.137,1.844-8.02,5.058-10.653c0.653-0.535,0.9-1.424,0.616-2.22c-0.285-0.796-1.039-1.327-1.884-1.327H33V92.678
		c1.219-0.296,2.352-0.893,3.305-1.776l85.476-80.925c1.968-1.851,3.788-3.848,5.443-5.937h19.737v42.038
		c-2.948-1.961-6.438-3.038-10.04-3.038C126.934,43.04,118.81,51.115,118.81,61.04z"/>
</g>
</svg>
